<svg width="14" height="14" viewBox="0 0 14 14" fill="none" xmlns="http://www.w3.org/2000/svg">
<path d="M11.89 8.7363C12.3226 7.7085 12.4221 6.57098 12.1747 5.48365C11.9273 4.39633 11.3453 3.4139 10.5106 2.67447C9.67591 1.93504 8.63045 1.47581 7.52123 1.36134C6.412 1.24687 5.29479 1.48292 4.32667 2.0363L3.66533 0.8783C4.67709 0.300044 5.82279 -0.00278814 6.98814 1.93443e-05C8.15348 0.00282683 9.29771 0.311176 10.3067 0.8943C13.3 2.6223 14.4467 6.3223 13.0513 9.40763L13.946 9.92363L11.1693 11.3996L11.0593 8.25697L11.89 8.7363V8.7363ZM2.05667 4.59897C1.6241 5.62677 1.52452 6.76429 1.77194 7.85161C2.01937 8.93893 2.60134 9.92137 3.43605 10.6608C4.27076 11.4002 5.31621 11.8595 6.42544 11.9739C7.53467 12.0884 8.65188 11.8523 9.62 11.299L10.2813 12.457C9.26958 13.0352 8.12387 13.3381 6.95853 13.3352C5.79319 13.3324 4.64896 13.0241 3.64 12.441C0.646667 10.713 -0.5 7.01297 0.895333 3.92763L0 3.4123L2.77667 1.9363L2.88667 5.07897L2.056 4.59963L2.05667 4.59897ZM7.91667 8.55297L6.02933 6.66763L4.144 8.55297L3.20133 7.6103L6.03 4.7823L7.916 6.66763L9.802 4.7823L10.7447 5.72497L7.916 8.55297H7.91667Z" fill="white"/>
</svg>
