<svg width="17" height="17" viewBox="0 0 17 17" fill="none" xmlns="http://www.w3.org/2000/svg">
<path d="M3.475 13.3354C3.64717 12.8474 3.96645 12.4249 4.38883 12.126C4.81122 11.8272 5.31591 11.6667 5.83333 11.6667C6.35076 11.6667 6.85545 11.8272 7.27783 12.126C7.70022 12.4249 8.0195 12.8474 8.19167 13.3354H16.6667V15.002H8.19167C8.0195 15.49 7.70022 15.9125 7.27783 16.2114C6.85545 16.5103 6.35076 16.6708 5.83333 16.6708C5.31591 16.6708 4.81122 16.5103 4.38883 16.2114C3.96645 15.9125 3.64717 15.49 3.475 15.002H0V13.3354H3.475ZM8.475 7.50204C8.64717 7.0141 8.96645 6.59157 9.38883 6.2927C9.81122 5.99383 10.3159 5.83333 10.8333 5.83333C11.3508 5.83333 11.8555 5.99383 12.2778 6.2927C12.7002 6.59157 13.0195 7.0141 13.1917 7.50204H16.6667V9.16871H13.1917C13.0195 9.65665 12.7002 10.0792 12.2778 10.3781C11.8555 10.6769 11.3508 10.8374 10.8333 10.8374C10.3159 10.8374 9.81122 10.6769 9.38883 10.3781C8.96645 10.0792 8.64717 9.65665 8.475 9.16871H0V7.50204H8.475ZM3.475 1.66871C3.64717 1.18076 3.96645 0.758237 4.38883 0.459367C4.81122 0.160497 5.31591 0 5.83333 0C6.35076 0 6.85545 0.160497 7.27783 0.459367C7.70022 0.758237 8.0195 1.18076 8.19167 1.66871H16.6667V3.33538H8.19167C8.0195 3.82332 7.70022 4.24585 7.27783 4.54472C6.85545 4.84359 6.35076 5.00408 5.83333 5.00408C5.31591 5.00408 4.81122 4.84359 4.38883 4.54472C3.96645 4.24585 3.64717 3.82332 3.475 3.33538H0V1.66871H3.475ZM5.83333 3.33538C6.05435 3.33538 6.26631 3.24758 6.42259 3.0913C6.57887 2.93502 6.66667 2.72306 6.66667 2.50204C6.66667 2.28103 6.57887 2.06907 6.42259 1.91279C6.26631 1.75651 6.05435 1.66871 5.83333 1.66871C5.61232 1.66871 5.40036 1.75651 5.24408 1.91279C5.0878 2.06907 5 2.28103 5 2.50204C5 2.72306 5.0878 2.93502 5.24408 3.0913C5.40036 3.24758 5.61232 3.33538 5.83333 3.33538ZM10.8333 9.16871C11.0543 9.16871 11.2663 9.08091 11.4226 8.92463C11.5789 8.76835 11.6667 8.55639 11.6667 8.33538C11.6667 8.11436 11.5789 7.9024 11.4226 7.74612C11.2663 7.58984 11.0543 7.50204 10.8333 7.50204C10.6123 7.50204 10.4004 7.58984 10.2441 7.74612C10.0878 7.9024 10 8.11436 10 8.33538C10 8.55639 10.0878 8.76835 10.2441 8.92463C10.4004 9.08091 10.6123 9.16871 10.8333 9.16871ZM5.83333 15.002C6.05435 15.002 6.26631 14.9142 6.42259 14.758C6.57887 14.6017 6.66667 14.3897 6.66667 14.1687C6.66667 13.9477 6.57887 13.7357 6.42259 13.5795C6.26631 13.4232 6.05435 13.3354 5.83333 13.3354C5.61232 13.3354 5.40036 13.4232 5.24408 13.5795C5.0878 13.7357 5 13.9477 5 14.1687C5 14.3897 5.0878 14.6017 5.24408 14.758C5.40036 14.9142 5.61232 15.002 5.83333 15.002Z" fill="#191919"/>
</svg>
