<svg width="15" height="16" viewBox="0 0 15 16" fill="none" xmlns="http://www.w3.org/2000/svg">
<path d="M1.66667 10.8333V15.8333H0V0H7.81833C7.97305 8.26239e-05 8.12469 0.0432359 8.25627 0.124627C8.38785 0.206018 8.49417 0.322433 8.56333 0.460833L9.16667 1.66667H14.1667C14.3877 1.66667 14.5996 1.75446 14.7559 1.91074C14.9122 2.06702 15 2.27899 15 2.5V11.6667C15 11.8877 14.9122 12.0996 14.7559 12.2559C14.5996 12.4122 14.3877 12.5 14.1667 12.5H8.84833C8.69362 12.4999 8.54197 12.4568 8.41039 12.3754C8.27882 12.294 8.17249 12.1776 8.10333 12.0392L7.5 10.8333H1.66667ZM1.66667 1.66667V9.16667H8.53L9.36333 10.8333H13.3333V3.33333H8.13667L7.30333 1.66667H1.66667Z" fill="#B83232"/>
</svg>
